<?xml version="1.0" encoding="UTF-8" standalone="no"?>
<!DOCTYPE svg PUBLIC "-//W3C//DTD SVG 1.1//EN" "http://www.w3.org/Graphics/SVG/1.1/DTD/svg11.dtd">
<svg width="100%" height="100%" viewBox="0 0 680 289" version="1.1" xmlns="http://www.w3.org/2000/svg" xmlns:xlink="http://www.w3.org/1999/xlink" xml:space="preserve" xmlns:serif="http://www.serif.com/" style="fill-rule:evenodd;clip-rule:evenodd;stroke-linejoin:round;stroke-miterlimit:2;">
    <rect id="logo" x="0" y="0.005" width="680" height="288" style="fill:none;"/>
    <clipPath id="_clip1">
        <rect x="0" y="0.005" width="680" height="288"/>
    </clipPath>
    <g clip-path="url(#_clip1)">
        <g id="logo1" serif:id="logo">
            <g id="waveform">
                <path d="M304.656,204.565c13.013,1.163 13.02,23.05 22.83,22.936l16.212,1.125l0,5.277l-16.212,-0.263c-13.582,0.56 -19.499,-16.966 -20.255,-18.262c-0.878,-1.536 -3.604,-1.686 -4.387,0.028c-2.5,5.65 -5.929,32.916 -22.522,34.537c-20.278,1.982 -15.635,-54.396 -27.316,-76.405c-0.941,-1.792 -4.802,-3.268 -6.079,-0.995c-14.118,24.674 -4.588,106.433 -33.834,111.826c-28.242,5.208 -29.842,-56.106 -42.311,-79.964c-1.405,-2.622 -6.647,-3.004 -8.128,-0.54c-12.047,19.742 -10.214,74.995 -41.685,75.819c-26.598,0.696 -27.794,-34.185 -48.632,-43.796c-11.142,-5.14 -36.488,-8.792 -54.963,-3.766c-7.004,1.905 -10.41,9.572 -10.978,13.036l0,-48.973c0.501,1.25 4.494,11.204 10.978,13.221c7.594,2.362 37.48,2.696 49.571,6.069c26.685,7.445 43.146,38.685 48.22,45.854c1.966,2.768 8.047,2.144 9.816,-0.99c12.219,-21.341 11.33,-77.238 42.617,-73.937c28.044,2.959 27.577,60.163 40.652,81.829c1.306,2.152 6.182,1.321 7.077,-1.244c11.265,-31.481 5.745,-114.113 34.262,-107.54c24.982,5.759 21.628,59.007 29.592,78.384c0.876,2.111 4.257,1.848 5.366,0.112c4.485,-7.087 7.384,-34.516 20.109,-33.378Z" style="fill-rule:nonzero;"/>
            </g>
            <path d="M56.667,135.633c-13.873,0 -24.711,-3.839 -32.514,-11.519c-7.803,-7.679 -11.705,-19.941 -11.705,-36.787c0,-3.344 0.062,-5.945 0.186,-7.803l0.186,-11.705c-0,-14.863 -0.186,-25.36 -0.558,-31.492c-0.371,-6.131 -1.176,-10.342 -2.415,-12.633c-1.239,-2.292 -3.406,-4.057 -6.503,-5.296l-3.344,-0.929l-0,-0.743l47.563,0l-0,0.743l-4.459,0.929c-3.468,1.239 -5.884,3.252 -7.246,6.039c-1.363,2.787 -2.261,7.865 -2.694,15.235c-0.434,7.369 -0.65,20.22 -0.65,38.552c-0,17.712 3.034,30.253 9.103,37.623c6.07,7.369 14.43,11.054 25.082,11.054c10.405,0 18.177,-3.127 23.317,-9.382c5.141,-6.255 7.711,-15.886 7.711,-28.891c-0,-17.836 -0.496,-31.213 -1.487,-40.131c-0.99,-8.918 -2.755,-15.39 -5.295,-19.415c-2.539,-4.026 -6.533,-7.03 -11.983,-9.011l-5.76,-2.602l0,-0.743l42.547,0l-0,0.743l-4.274,1.115c-2.601,1.115 -4.428,2.725 -5.48,4.831c-1.053,2.105 -1.765,5.914 -2.137,11.426c-0.372,5.512 -0.557,14.647 -0.557,27.404l0.185,22.481c0,16.226 -3.87,28.767 -11.612,37.623c-7.741,8.856 -19.477,13.284 -35.207,13.284Zm60.196,-2.601l2.973,-1.114c2.23,-1.115 3.809,-2.725 4.738,-4.831c0.929,-2.106 1.548,-5.698 1.858,-10.776c0.309,-5.078 0.464,-13.687 0.464,-25.825c0,-10.652 -0.124,-18.208 -0.371,-22.667c-0.248,-4.459 -0.867,-7.648 -1.858,-9.568c-0.991,-1.92 -2.725,-3.375 -5.203,-4.366l-3.53,-1.858l0,-0.743c6.689,-0.62 12.479,-2.23 17.372,-4.831c4.893,-2.601 8.825,-6.007 11.798,-10.218l0.557,0.185l-0.371,7.246c-0.496,5.45 -0.805,10.59 -0.929,15.421l0.743,-0c12.262,-12.882 24.339,-19.322 36.229,-19.322c8.918,-0 15.235,2.384 18.951,7.153c3.716,4.768 5.574,11.921 5.574,21.459l-0.186,25.082c-0.124,2.105 -0.186,4.768 -0.186,7.989c0,8.051 0.186,13.996 0.558,17.836c0.371,3.839 1.176,6.688 2.415,8.546c1.239,1.858 3.22,3.282 5.945,4.273l2.973,0.929l0,0.744l-41.432,-0l0,-0.744l4.274,-1.114c2.105,-0.991 3.623,-2.725 4.551,-5.203c0.929,-2.477 1.549,-6.471 1.858,-11.983c0.31,-5.512 0.465,-14.275 0.465,-26.29c-0,-10.033 -0.465,-17.557 -1.394,-22.574c-0.929,-5.016 -2.725,-8.608 -5.388,-10.776c-2.663,-2.167 -6.719,-3.251 -12.169,-3.251c-3.963,0 -7.555,0.619 -10.776,1.858c-3.22,1.239 -7.06,3.654 -11.519,7.246c-0.372,10.157 -0.557,19.694 -0.557,28.612c-0,12.138 0.154,20.778 0.464,25.918c0.31,5.14 1.053,8.918 2.23,11.333c1.176,2.416 3.189,4.181 6.038,5.295l4.273,0.929l0,0.744l-41.432,-0l0,-0.744Zm104.973,0l3.716,-1.114c1.982,-1.115 3.375,-2.942 4.18,-5.481c0.805,-2.539 1.332,-7.37 1.579,-14.492c0.248,-7.122 0.372,-19.477 0.372,-37.066c0,-19.694 -0.093,-32.854 -0.279,-39.481c-0.185,-6.626 -0.743,-11.085 -1.672,-13.377c-0.929,-2.291 -2.694,-3.994 -5.295,-5.109l-3.344,-1.672l-0,-0.743c6.812,-0.619 12.881,-2.199 18.208,-4.738c5.326,-2.539 9.413,-5.79 12.262,-9.754l0.743,0.186c-0.867,5.945 -1.455,13.315 -1.765,22.109c-0.31,8.794 -0.464,20.871 -0.464,36.23l0.557,-0c12.138,-12.51 24.091,-18.765 35.858,-18.765c8.918,-0 15.204,2.384 18.858,7.153c3.654,4.768 5.481,11.921 5.481,21.459l-0.186,25.082c-0.124,2.105 -0.186,4.768 -0.186,7.989c0,8.051 0.217,13.996 0.65,17.836c0.434,3.839 1.239,6.688 2.416,8.546c1.176,1.858 3.127,3.282 5.852,4.273l3.159,0.929l-0,0.744l-41.618,-0l0,-0.744l4.273,-1.114c2.106,-0.991 3.623,-2.725 4.552,-5.203c0.929,-2.477 1.548,-6.471 1.858,-11.983c0.31,-5.512 0.465,-14.275 0.465,-26.29c-0,-10.033 -0.465,-17.557 -1.394,-22.574c-0.929,-5.016 -2.725,-8.608 -5.388,-10.776c-2.663,-2.167 -6.719,-3.251 -12.169,-3.251c-3.964,0 -7.556,0.619 -10.776,1.858c-3.221,1.239 -7.06,3.654 -11.519,7.246c-0.372,10.157 -0.558,19.694 -0.558,28.612c0,11.891 0.186,20.468 0.558,25.732c0.371,5.264 1.145,9.104 2.322,11.519c1.177,2.416 3.19,4.181 6.038,5.295l4.088,0.929l-0,0.744l-41.432,-0l0,-0.744Zm148.448,2.601c-8.051,0 -15.266,-1.703 -21.645,-5.109c-6.379,-3.406 -11.426,-8.484 -15.142,-15.235c-3.716,-6.75 -5.574,-14.894 -5.574,-24.432c0,-10.528 2.044,-19.632 6.132,-27.311c4.087,-7.679 9.692,-13.563 16.814,-17.65c7.122,-4.088 15.142,-6.131 24.06,-6.131c10.528,-0 18.951,3.003 25.268,9.011c6.317,6.007 9.475,13.841 9.475,23.502c0,2.354 -0.186,4.769 -0.557,7.246l-62.798,2.415c0.248,12.758 3.189,22.543 8.825,29.356c5.636,6.812 13.284,10.218 22.945,10.218c6.441,0 12.294,-2.074 17.558,-6.224c5.264,-4.149 9.011,-9.94 11.24,-17.371l1.301,0.185c-1.734,12.51 -5.884,21.893 -12.448,28.148c-6.565,6.255 -15.049,9.382 -25.454,9.382Zm15.049,-58.896c2.23,-0.124 3.747,-0.588 4.552,-1.393c0.805,-0.805 1.208,-2.323 1.208,-4.552c-0,-7.556 -2.044,-13.749 -6.131,-18.579c-4.088,-4.831 -9.352,-7.246 -15.793,-7.246c-6.936,-0 -12.448,2.941 -16.535,8.825c-4.088,5.883 -6.193,14.089 -6.317,24.617l39.016,-1.672Zm60.569,58.896c-8.423,0 -15.081,-2.384 -19.973,-7.153c-4.893,-4.768 -7.339,-10.621 -7.339,-17.557c0,-5.326 2.075,-9.754 6.224,-13.284c4.15,-3.53 10.064,-6.565 17.743,-9.104c7.68,-2.539 18.332,-5.357 31.957,-8.453c-0,-12.015 -1.146,-20.902 -3.437,-26.662c-2.292,-5.759 -6.472,-8.639 -12.541,-8.639c-4.583,-0 -8.392,1.331 -11.427,3.995c-3.034,2.663 -4.552,6.471 -4.552,11.426c0,1.486 0.186,3.158 0.558,5.016c0.495,2.973 -0.403,5.295 -2.694,6.967c-2.292,1.672 -5.295,2.509 -9.011,2.509c-3.344,-0 -5.667,-0.589 -6.967,-1.765c-1.301,-1.177 -1.951,-2.756 -1.951,-4.738c-0,-4.459 2.013,-8.887 6.038,-13.284c4.026,-4.397 9.29,-8.02 15.792,-10.869c6.503,-2.849 13.285,-4.273 20.345,-4.273c10.528,-0 17.867,2.353 22.016,7.06c4.149,4.706 6.224,11.89 6.224,21.552l-0.186,20.808c-0.124,3.592 -0.185,8.733 -0.185,15.421c-0,8.423 0.402,14.12 1.207,17.093c0.805,2.973 2.446,4.459 4.924,4.459c1.61,0 3.065,-1.331 4.366,-3.995c1.3,-2.663 2.26,-7.338 2.88,-14.027l1.486,0c-0.124,10.281 -1.517,17.434 -4.18,21.459c-2.663,4.026 -6.72,6.038 -12.17,6.038c-9.661,0 -14.987,-6.131 -15.978,-18.393l-0.743,-0c-5.202,5.945 -10.064,10.497 -14.585,13.656c-4.521,3.158 -9.135,4.737 -13.841,4.737Zm9.661,-11.704c3.22,-0 6.224,-0.744 9.011,-2.23c2.787,-1.486 5.914,-3.716 9.382,-6.689c0.372,-8.546 0.558,-18.765 0.558,-30.655c-10.281,1.734 -17.929,3.375 -22.946,4.923c-5.016,1.549 -8.608,3.561 -10.776,6.038c-2.167,2.478 -3.251,5.946 -3.251,10.405c-0,2.601 0.681,5.326 2.044,8.175c1.362,2.849 3.406,5.233 6.131,7.153c2.725,1.92 6.007,2.88 9.847,2.88Zm58.896,9.103l2.973,-1.114c2.229,-1.115 3.808,-2.725 4.737,-4.831c0.929,-2.106 1.549,-5.698 1.858,-10.776c0.31,-5.078 0.465,-13.687 0.465,-25.825c-0,-10.652 -0.124,-18.208 -0.372,-22.667c-0.248,-4.459 -0.867,-7.648 -1.858,-9.568c-0.991,-1.92 -2.725,-3.375 -5.202,-4.366l-3.53,-1.858l0,-0.743c6.689,-0.62 12.479,-2.23 17.372,-4.831c4.892,-2.601 8.825,-6.007 11.797,-10.218l0.558,0.185l-0.372,6.503c-0.495,6.193 -0.805,12.077 -0.929,17.65l0.743,0c3.221,-5.945 7.03,-10.899 11.427,-14.863c4.397,-3.964 8.825,-5.945 13.284,-5.945c3.963,-0 7.153,1.083 9.568,3.251c2.415,2.168 3.623,4.738 3.623,7.71c0,3.221 -1.331,6.162 -3.994,8.825c-2.663,2.663 -5.296,3.995 -7.897,3.995c-1.362,-0 -2.57,-0.464 -3.623,-1.393c-1.052,-0.929 -2.198,-2.261 -3.437,-3.995c-1.362,-1.734 -2.477,-3.004 -3.344,-3.809c-0.867,-0.805 -1.92,-1.207 -3.158,-1.207c-1.611,-0 -3.438,0.867 -5.481,2.601c-2.044,1.734 -4.119,4.149 -6.224,7.246c-0.372,8.174 -0.558,17.031 -0.558,26.568c0,12.014 0.217,20.561 0.651,25.639c0.433,5.079 1.393,8.825 2.879,11.241c1.487,2.415 4.088,4.242 7.804,5.481l5.016,1.114l-0,0.744l-44.776,-0l0,-0.744Zm134.142,4.645c0.619,-5.697 1.053,-12.758 1.301,-21.18l-0.558,-0c-5.821,6.193 -11.364,10.931 -16.628,14.213c-5.264,3.282 -10.869,4.923 -16.814,4.923c-6.193,0 -11.891,-1.641 -17.093,-4.923c-5.202,-3.282 -9.352,-8.237 -12.448,-14.863c-3.097,-6.627 -4.645,-14.709 -4.645,-24.246c-0,-10.776 2.105,-20.035 6.317,-27.776c4.211,-7.742 9.661,-13.594 16.35,-17.558c6.688,-3.963 13.624,-5.945 20.808,-5.945c11.024,-0 19.013,3.964 23.967,11.891c0,-10.776 -0.154,-18.301 -0.464,-22.574c-0.31,-4.273 -0.929,-7.215 -1.858,-8.825c-0.929,-1.61 -2.632,-2.911 -5.109,-3.902l-4.273,-1.672l-0,-0.743c7.184,-0.619 13.531,-2.199 19.043,-4.738c5.512,-2.539 9.692,-5.79 12.541,-9.754l0.743,0.186c-0.867,6.317 -1.455,14.368 -1.765,24.153c-0.309,9.785 -0.464,25.763 -0.464,47.934c-0,17.217 0.217,29.324 0.65,36.323c0.434,6.998 1.239,11.488 2.415,13.47c1.177,1.981 3.314,3.282 6.41,3.901l2.787,0.743l0,0.744c-12.386,0.867 -22.543,4.335 -30.47,10.404l-0.743,-0.186Zm-21.552,-14.12c3.84,-0 7.432,-0.681 10.776,-2.044c3.344,-1.362 6.936,-3.716 10.776,-7.06c0.372,-9.661 0.557,-20.561 0.557,-32.699c0,-24.649 -8.174,-36.973 -24.524,-36.973c-15.483,-0 -23.224,12.572 -23.224,37.716c-0,13.625 2.384,23.874 7.153,30.748c4.769,6.875 10.931,10.312 18.486,10.312Zm-305.071,160.967l4.273,-1.115c2.849,-1.115 4.8,-2.88 5.853,-5.295c1.053,-2.416 1.765,-7.06 2.136,-13.935c0.372,-6.874 0.558,-18.981 0.558,-36.322c-0,-18.208 -0.186,-30.873 -0.558,-37.995c-0.371,-7.122 -1.176,-11.921 -2.415,-14.398c-1.238,-2.478 -3.468,-4.336 -6.688,-5.574l-3.159,-0.929l0,-0.743l50.164,-0c14.616,-0 26.011,2.477 34.186,7.431c8.175,4.955 12.262,13.625 12.262,26.011c0,11.891 -4.583,21.057 -13.748,27.498c-9.166,6.44 -21.243,9.661 -36.23,9.661c-5.574,-0 -10.342,-0.186 -14.306,-0.558c0.124,13.377 0.526,22.853 1.208,28.427c0.681,5.573 1.92,9.382 3.716,11.426c1.796,2.044 4.985,3.747 9.568,5.109l5.945,1.301l0,0.743l-52.765,-0l0,-0.743Zm32.328,-51.465c5.45,0.743 10.281,1.115 14.492,1.115c10.404,-0 17.867,-2.261 22.388,-6.782c4.521,-4.52 6.781,-11.612 6.781,-21.273c0,-11.147 -3.189,-19.632 -9.568,-25.453c-6.379,-5.822 -15.018,-8.733 -25.918,-8.733l-6.874,0c-0.867,10.281 -1.301,27.684 -1.301,52.208l0,8.918Zm95.311,54.066c-8.422,-0 -15.08,-2.385 -19.972,-7.153c-4.893,-4.769 -7.339,-10.621 -7.339,-17.558c0,-5.326 2.075,-9.754 6.224,-13.284c4.149,-3.53 10.064,-6.564 17.743,-9.104c7.68,-2.539 18.332,-5.357 31.957,-8.453c-0,-12.015 -1.146,-20.902 -3.438,-26.661c-2.291,-5.76 -6.471,-8.64 -12.541,-8.64c-4.583,0 -8.391,1.332 -11.426,3.995c-3.034,2.663 -4.552,6.472 -4.552,11.426c0,1.486 0.186,3.158 0.558,5.016c0.495,2.973 -0.403,5.295 -2.694,6.968c-2.292,1.672 -5.295,2.508 -9.011,2.508c-3.345,-0 -5.667,-0.589 -6.968,-1.765c-1.3,-1.177 -1.95,-2.756 -1.95,-4.738c-0,-4.459 2.012,-8.887 6.038,-13.284c4.025,-4.397 9.29,-8.02 15.792,-10.869c6.503,-2.849 13.284,-4.273 20.345,-4.273c10.528,-0 17.867,2.353 22.016,7.06c4.149,4.707 6.224,11.891 6.224,21.552l-0.186,20.809c-0.124,3.592 -0.186,8.732 -0.186,15.42c0,8.423 0.403,14.121 1.208,17.093c0.805,2.973 2.446,4.459 4.924,4.459c1.61,0 3.065,-1.331 4.366,-3.994c1.3,-2.663 2.26,-7.339 2.879,-14.028l1.487,0c-0.124,10.281 -1.518,17.434 -4.181,21.459c-2.663,4.026 -6.719,6.039 -12.169,6.039c-9.661,-0 -14.987,-6.131 -15.978,-18.394l-0.743,0c-5.202,5.946 -10.064,10.498 -14.585,13.656c-4.521,3.158 -9.135,4.738 -13.842,4.738Zm9.662,-11.705c3.22,-0 6.224,-0.743 9.011,-2.23c2.787,-1.486 5.914,-3.716 9.382,-6.688c0.372,-8.547 0.558,-18.765 0.558,-30.656c-10.281,1.734 -17.929,3.375 -22.946,4.924c-5.016,1.548 -8.608,3.561 -10.776,6.038c-2.167,2.477 -3.251,5.945 -3.251,10.404c-0,2.601 0.681,5.326 2.044,8.175c1.362,2.849 3.406,5.233 6.131,7.153c2.725,1.92 6.007,2.88 9.847,2.88Zm89.923,11.705c-7.432,-0 -13.098,-2.261 -17,-6.782c-3.901,-4.521 -5.852,-11.674 -5.852,-21.459l0.186,-44.776l-0,-12.819l-13.192,-0l0,-0.929c7.804,-3.097 14.182,-7.184 19.137,-12.263c4.954,-5.078 9.537,-12.633 13.749,-22.666l0.928,0.186c-0.247,2.972 -0.371,5.016 -0.371,6.131c-0.743,8.546 -1.177,15.668 -1.301,21.366l28.241,-0l-2.044,8.175l-26.382,-0l-0.186,44.404c-0,7.432 0.433,13.191 1.3,17.279c0.867,4.087 2.323,7.029 4.366,8.825c2.044,1.796 4.924,2.694 8.64,2.694c3.096,-0 5.697,-1.177 7.803,-3.53c2.106,-2.354 3.964,-7.308 5.574,-14.864l1.3,0.186c-0.867,11.519 -3.344,19.539 -7.431,24.06c-4.088,4.521 -9.909,6.782 -17.465,6.782Zm30.099,-2.601l3.715,-1.115c1.982,-1.115 3.376,-2.942 4.181,-5.481c0.805,-2.539 1.331,-7.37 1.579,-14.492c0.248,-7.122 0.372,-19.477 0.372,-37.065c-0,-19.694 -0.093,-32.855 -0.279,-39.481c-0.186,-6.627 -0.743,-11.086 -1.672,-13.377c-0.929,-2.292 -2.694,-3.995 -5.295,-5.11l-3.345,-1.672l0,-0.743c6.813,-0.619 12.882,-2.198 18.208,-4.738c5.326,-2.539 9.414,-5.79 12.262,-9.754l0.743,0.186c-0.867,5.945 -1.455,13.315 -1.765,22.109c-0.309,8.795 -0.464,20.871 -0.464,36.23l0.557,-0c12.139,-12.51 24.091,-18.765 35.858,-18.765c8.918,-0 15.204,2.384 18.858,7.153c3.654,4.769 5.481,11.922 5.481,21.459l-0.186,25.082c-0.124,2.106 -0.186,4.769 -0.186,7.989c0,8.051 0.217,13.996 0.651,17.836c0.433,3.84 1.238,6.689 2.415,8.546c1.177,1.858 3.128,3.283 5.853,4.274l3.158,0.929l-0,0.743l-41.617,-0l-0,-0.743l4.273,-1.115c2.105,-0.991 3.623,-2.725 4.552,-5.202c0.929,-2.478 1.548,-6.472 1.858,-11.984c0.309,-5.512 0.464,-14.275 0.464,-26.29c0,-10.032 -0.464,-17.557 -1.393,-22.573c-0.929,-5.017 -2.725,-8.609 -5.388,-10.776c-2.663,-2.168 -6.72,-3.252 -12.17,-3.252c-3.963,0 -7.555,0.62 -10.776,1.858c-3.22,1.239 -7.06,3.654 -11.519,7.246c-0.371,10.157 -0.557,19.694 -0.557,28.612c-0,11.891 0.186,20.468 0.557,25.732c0.372,5.265 1.146,9.104 2.323,11.52c1.176,2.415 3.189,4.18 6.038,5.295l4.087,0.929l0,0.743l-41.431,-0l-0,-0.743Z" style="fill-rule:nonzero;"/>
        </g>
    </g>
</svg>
