<svg width="512" height="512" viewBox="0 0 512 512" fill="none" xmlns="http://www.w3.org/2000/svg">
<g clip-path="url(#clip0_4_7326)">
<path d="M512 256.001C512 244.684 511.257 233.54 509.833 222.61H222.606C170.305 170.312 74.976 74.989 74.98 74.981C-24.994 174.955 -24.994 337.045 74.98 437.021L222.609 289.393H509.833C511.256 278.462 512 267.318 512 256.001Z" fill="black"/>
<path d="M511.927 261.823C511.916 262.317 511.905 262.813 511.891 263.307C511.903 262.811 511.915 262.317 511.927 261.823Z" fill="#F0F0F0"/>
<path d="M511.681 268.819C511.658 269.308 511.624 269.795 511.598 270.283C511.624 269.796 511.656 269.308 511.681 268.819Z" fill="#F0F0F0"/>
<path d="M511.336 274.399C511.285 275.118 511.235 275.837 511.177 276.554C511.235 275.837 511.284 275.118 511.336 274.399Z" fill="#F0F0F0"/>
<path d="M510.481 228.099C510.575 228.955 510.669 229.81 510.754 230.668C510.669 229.809 510.574 228.955 510.481 228.099Z" fill="#F0F0F0"/>
<path d="M511.597 241.718C511.624 242.206 511.657 242.693 511.68 243.182C511.656 242.693 511.624 242.205 511.597 241.718Z" fill="#F0F0F0"/>
<path d="M511.89 248.696C511.904 249.19 511.914 249.686 511.926 250.18C511.915 249.684 511.903 249.19 511.89 248.696Z" fill="#F0F0F0"/>
<path d="M511.177 235.447C511.235 236.164 511.285 236.883 511.336 237.602C511.284 236.883 511.235 236.164 511.177 235.447Z" fill="#F0F0F0"/>
<path d="M509.833 222.609C509.948 223.486 510.05 224.368 510.155 225.247C494.961 98.365 386.975 0.000976562 256 0.000976562C185.306 0.000976562 121.305 28.656 74.978 74.985L222.602 222.61H509.833V222.609Z" fill="#D80027"/>
<path d="M509.833 289.392H222.602L74.978 437.017C121.305 483.345 185.306 512.001 256 512.001C386.975 512.001 494.962 413.637 510.155 286.754C510.05 287.633 509.946 288.515 509.833 289.392Z" fill="#6DA544"/>
<path d="M510.753 281.333C510.668 282.191 510.574 283.046 510.48 283.902C510.574 283.046 510.669 282.192 510.753 281.333Z" fill="#F0F0F0"/>
<path d="M511.336 237.602C511.433 238.971 511.521 240.343 511.596 241.718C511.52 240.343 511.433 238.971 511.336 237.602Z" fill="black"/>
<path d="M510.155 225.247C510.27 226.196 510.379 227.147 510.481 228.099C510.377 227.147 510.268 226.197 510.155 225.247Z" fill="black"/>
<path d="M510.753 230.668C510.909 232.257 511.05 233.85 511.177 235.449C511.051 233.85 510.91 232.256 510.753 230.668Z" fill="black"/>
<path d="M512 256.001C512 257.948 511.97 259.887 511.927 261.822C511.97 259.886 512 257.947 512 256.001Z" fill="black"/>
<path d="M511.597 270.283C511.521 271.658 511.433 273.03 511.337 274.399C511.433 273.03 511.52 271.658 511.597 270.283Z" fill="black"/>
<path d="M511.177 276.554C511.05 278.151 510.909 279.745 510.753 281.333C510.91 279.745 511.051 278.151 511.177 276.554Z" fill="black"/>
<path d="M510.481 283.902C510.379 284.854 510.27 285.804 510.155 286.754C510.268 285.805 510.377 284.854 510.481 283.902Z" fill="black"/>
<path d="M511.927 250.179C511.97 252.115 512 254.055 512 256C512 254.055 511.97 252.115 511.927 250.179Z" fill="black"/>
<path d="M511.681 243.182C511.771 245.014 511.839 246.853 511.891 248.695C511.839 246.852 511.772 245.014 511.681 243.182Z" fill="black"/>
<path d="M511.89 263.307C511.838 265.149 511.77 266.988 511.68 268.82C511.772 266.987 511.839 265.149 511.89 263.307Z" fill="black"/>
<path d="M511.756 244.778H213.201L59.8441 91.4438C54.8871 96.6718 49.5141 103.972 46.1911 109.171L192.85 255.907L46.0681 402.692C48.9741 407.862 55.3051 415.514 59.7501 420.493L213.204 267.039H511.792C511.951 263.347 512.001 259.639 512.001 255.909C512 250.911 511.862 247.226 511.756 244.778Z" fill="#FFDA44"/>
<path d="M62.1871 310.573V289.13C83.5851 289.13 100.992 271.721 100.992 250.325C100.992 235.186 88.6751 222.87 73.5371 222.87C63.2241 222.87 54.8331 231.26 54.8331 241.575C54.8331 248.17 60.1981 253.536 66.7941 253.536C70.5221 253.536 73.5551 250.501 73.5551 246.773H94.9971C94.9971 262.326 82.3451 274.978 66.7951 274.978C48.3761 274.979 33.3931 259.993 33.3931 241.577C33.3931 219.44 51.4031 201.431 73.5381 201.431C100.5 201.431 122.436 223.367 122.436 250.328C122.435 283.545 95.4081 310.573 62.1871 310.573Z" fill="#FFDA44"/>
</g>
<defs>
<clipPath id="clip0_4_7326">
<rect width="512.001" height="512.001" fill="white"/>
</clipPath>
</defs>
</svg>
