<svg width="512" height="512" viewBox="0 0 512 512" fill="none" xmlns="http://www.w3.org/2000/svg">
<g clip-path="url(#clip0_4_7294)">
<path d="M255.79 511.58C397.059 511.58 511.58 397.059 511.58 255.79C511.58 114.521 397.059 0 255.79 0C114.521 0 0 114.521 0 255.79C0 397.059 114.521 511.58 255.79 511.58Z" fill="#F0F0F0"/>
<path d="M456.714 205.744H372.563C372.563 190.389 360.115 177.941 344.76 177.941L322.517 222.426C322.517 222.426 346.243 289.154 345.501 289.154H373.304C388.66 289.154 401.107 276.707 401.107 261.351C416.463 261.351 428.91 248.904 428.91 233.548H427.984C443.339 233.547 456.714 221.1 456.714 205.744Z" fill="#ACABB1"/>
<path d="M54.8652 205.744H139.016C139.016 190.389 151.464 177.941 166.819 177.941L189.062 222.426C189.062 222.426 165.336 289.154 166.078 289.154H138.275C122.919 289.154 110.472 276.707 110.472 261.351C95.1162 261.351 82.6692 248.904 82.6692 233.548H83.5952C68.2392 233.547 54.8652 221.1 54.8652 205.744Z" fill="#ACABB1"/>
<path d="M344.76 355.881V367.002H166.819V355.881H122.334V400.366H166.819V411.487H344.76V400.366H389.245V355.881H344.76Z" fill="#FFDA44"/>
<path d="M166.819 177.94V289.152C166.819 357.255 255.789 378.123 255.789 378.123C255.789 378.123 344.759 357.255 344.759 289.152V177.94L255.789 166.819L166.819 177.94Z" fill="#0052B4"/>
<path d="M166.82 222.43H344.76V289.158H166.82V222.43Z" fill="#D80027"/>
<path d="M300.274 122.334V139.016L289.153 144.577L278.032 133.455V100.091H233.547V133.455L222.426 144.577L211.304 139.016V122.334H166.819V177.94H344.76V122.334H300.274Z" fill="#FFDA44"/>
</g>
<defs>
<clipPath id="clip0_4_7294">
<rect width="511.58" height="511.58" fill="white"/>
</clipPath>
</defs>
</svg>
